<svg width="35" height="36" viewBox="0 0 35 36" fill="none" xmlns="http://www.w3.org/2000/svg">
<mask id="mask0_1_122" style="mask-type:luminance" maskUnits="userSpaceOnUse" x="0" y="0" width="35" height="36">
<path d="M34.8531 0.883545H0.101288V35.6353H34.8531V0.883545Z" fill="white"/>
</mask>
<g mask="url(#mask0_1_122)">
<path d="M19.8543 35.6355C17.6067 35.6355 15.7913 33.7985 15.7913 31.5509C15.7913 31.1835 15.8345 30.8161 15.9426 30.4703L16.31 29.1303H12.5495L11.5554 32.6747C10.9503 34.8359 8.70264 36.1109 6.54146 35.5058C4.38028 34.9007 3.10518 32.6531 3.71031 30.4919L4.07771 29.152C1.83009 29.1087 0.0363073 27.2501 0.0795309 25.0025C0.122754 22.7549 1.98137 20.9611 4.22899 21.0043H6.36856L7.88139 15.5797H7.62205C5.37442 15.5797 3.55903 13.7644 3.55903 11.5167C3.55903 9.2691 5.37442 7.45371 7.62205 7.45371H10.1722L11.1664 3.90938C11.8147 1.7482 14.084 0.537938 16.2452 1.18629C18.3415 1.81303 19.5734 3.99582 19.0115 6.11378L18.6441 7.45371H22.4045L23.3987 3.90938C24.0038 1.7482 26.2514 0.473102 28.4126 1.07823C30.5738 1.68336 31.8489 3.93099 31.2437 6.09217L30.8547 7.4321C33.1024 7.47532 34.8961 9.33394 34.8529 11.5816C34.8097 13.8292 32.9511 15.623 30.7034 15.5797H28.5639L27.0511 21.0043H27.3104C29.558 21.0043 31.3734 22.8197 31.3734 25.0673C31.3734 27.3149 29.558 29.1303 27.3104 29.1303H24.7602L23.7661 32.6747C23.269 34.4252 21.6697 35.6355 19.8327 35.6571L19.8543 35.6355ZM11.7715 27.0772H17.6283C18.1902 27.0772 18.6441 27.5311 18.6441 28.093C18.6441 28.1794 18.6441 28.2875 18.6008 28.3739L17.866 30.989C17.4986 32.0479 18.0389 33.215 19.0979 33.5824C20.1569 33.9498 21.3239 33.4095 21.6913 32.3505C21.7129 32.2641 21.7345 32.1776 21.7562 32.0912L22.9664 27.812C23.0961 27.3798 23.4851 27.0772 23.9389 27.0772H27.2672C28.391 27.0772 29.2987 26.1695 29.2987 25.0457C29.2987 23.9219 28.391 23.0142 27.2672 23.0142H25.6679C25.106 23.0142 24.6521 22.5604 24.6521 21.9984C24.6521 21.912 24.6521 21.8039 24.6954 21.7175L26.7917 14.2614C26.9214 13.8292 27.3104 13.5266 27.7642 13.5266H30.6602C31.784 13.5266 32.6917 12.6189 32.6917 11.4951C32.6917 10.3713 31.784 9.46361 30.6602 9.46361H29.4716C28.9097 9.46361 28.4558 9.00976 28.4558 8.44785C28.4558 8.36141 28.4558 8.25335 28.499 8.1669L29.2338 5.53026C29.5364 4.44967 28.9097 3.32586 27.8291 3.02329C26.7485 2.72073 25.6247 3.34747 25.3221 4.42806L24.1118 8.75042C23.9822 9.18265 23.5932 9.48522 23.1393 9.48522H17.2825C16.7206 9.48522 16.2668 9.03137 16.2668 8.46947C16.2668 8.38302 16.2668 8.27496 16.31 8.18851L17.0448 5.55187C17.3474 4.47128 16.7206 3.34747 15.64 3.0449C14.5594 2.74234 13.4356 3.36908 13.1331 4.44967L11.9228 8.75042C11.7931 9.18265 11.4041 9.48522 10.9503 9.48522H7.62205C6.49823 9.48522 5.59054 10.3929 5.59054 11.5167C5.59054 12.6405 6.49823 13.5482 7.62205 13.5482H9.22132C9.78323 13.5482 10.2371 14.0021 10.2371 14.564C10.2371 14.6504 10.2371 14.7585 10.1938 14.8449L8.09751 22.2794C7.96783 22.7116 7.57882 23.0142 7.12498 23.0142H4.22899C3.10518 23.0142 2.19749 23.9219 2.19749 25.0457C2.19749 26.1695 3.10518 27.0772 4.22899 27.0772H5.41764C5.97955 27.0772 6.4334 27.5311 6.4334 28.093C6.4334 28.1794 6.4334 28.2875 6.39017 28.3739L5.65537 31.0106C5.35281 32.0912 5.97955 33.215 7.06014 33.5175C8.14073 33.8201 9.26454 33.1934 9.56711 32.1128L10.7774 27.812C10.907 27.3798 11.2961 27.0772 11.7499 27.0772H11.7715ZM19.3573 23.0142H13.5005C12.9385 23.0142 12.4847 22.5604 12.4847 21.9984C12.4847 21.912 12.4847 21.8039 12.5279 21.7175L14.6243 14.2614C14.7539 13.8292 15.143 13.5266 15.5968 13.5266H21.4536C22.0155 13.5266 22.4693 13.9805 22.4693 14.5424C22.4693 14.6288 22.4694 14.7369 22.4261 14.8233L20.3298 22.2794C20.2001 22.7116 19.8111 23.0142 19.3573 23.0142ZM14.8404 20.9827H18.6008L20.1137 15.5581H16.3532L14.8404 20.9827Z" fill="#20B9AC"/>
</g>
</svg>
