<svg width="33" height="33" viewBox="0 0 33 33" fill="none" xmlns="http://www.w3.org/2000/svg">
<mask id="mask0_1_132" style="mask-type:luminance" maskUnits="userSpaceOnUse" x="0" y="0" width="33" height="33">
<path d="M32.8031 0.288574H0.09552V32.9961H32.8031V0.288574Z" fill="white"/>
</mask>
<g mask="url(#mask0_1_132)">
<path d="M5.689 18.0662L9.71643 14.0388C13.093 16.561 17.873 15.8694 20.3952 12.4929C22.9174 9.11635 22.2258 4.33633 18.8493 1.81411C15.4728 -0.708114 10.6928 -0.0165373 8.17055 3.35999C6.1365 6.06528 6.1365 9.78759 8.17055 12.5132L4.12279 16.561L2.57691 15.0151C2.14976 14.5879 1.45818 14.5879 1.03103 15.0151C0.603877 15.4423 0.603877 16.1338 1.03103 16.561L2.57691 18.1069L0.420813 20.263C-0.0266785 20.6698 -0.0470189 21.3613 0.380132 21.8088C0.786942 22.2563 1.47852 22.2767 1.92601 21.8495L1.96669 21.8088L4.12279 19.6527L5.66866 21.1986C6.09582 21.6258 6.78739 21.6258 7.21454 21.1986C7.64169 20.7715 7.64169 20.0799 7.21454 19.6527L5.66866 18.1069L5.689 18.0662ZM14.2727 2.50569C17.2831 2.50569 19.7036 4.94655 19.7036 7.9366C19.7036 10.9267 17.2628 13.3675 14.2727 13.3675C11.2826 13.3675 8.84178 10.9267 8.84178 7.9366C8.84178 4.94655 11.2826 2.50569 14.2727 2.50569Z" fill="#20B9AC"/>
<path d="M31.6639 11.2115H26.233C25.6228 11.2115 25.1549 11.6997 25.1549 12.2895C25.1549 12.8794 25.6431 13.3676 26.233 13.3676H29.04L23.1616 19.246C19.7851 16.7238 15.005 17.4154 12.4828 20.7919C9.96059 24.1684 10.6522 28.9484 14.0287 31.4706C17.4052 33.9929 22.1852 33.3013 24.7075 29.9248C26.7415 27.2195 26.7415 23.4972 24.7075 20.7715L30.5859 14.8931V17.7001C30.5859 18.3103 31.074 18.7782 31.6842 18.7782C32.2741 18.7782 32.7623 18.29 32.7623 17.7001V12.2692C32.7623 11.659 32.2741 11.1912 31.6842 11.1912L31.6639 11.2115ZM18.6256 30.7791C15.6152 30.7791 13.1947 28.3382 13.1947 25.3482C13.1947 22.3581 15.6356 19.9172 18.6256 19.9172C21.636 19.9172 24.0566 22.3581 24.0566 25.3482C24.0566 28.3586 21.6157 30.7791 18.6256 30.7791Z" fill="#20B9AC"/>
</g>
</svg>
