<svg width="34" height="34" viewBox="0 0 34 34" fill="none" xmlns="http://www.w3.org/2000/svg">
<mask id="mask0_1_143" style="mask-type:luminance" maskUnits="userSpaceOnUse" x="0" y="0" width="34" height="34">
<path d="M33.6218 0.701172H0.505371V33.8176H33.6218V0.701172Z" fill="white"/>
</mask>
<g mask="url(#mask0_1_143)">
<path d="M30.2029 6.55029C31.4592 5.02628 31.2532 2.78145 29.7292 1.52517C28.2052 0.268889 25.9603 0.474837 24.7041 1.99885C23.6125 3.31691 23.6125 5.23223 24.7041 6.55029C22.6034 7.60063 21.2853 9.72189 21.2853 12.0697V13.8202C20.8528 13.4084 20.338 13.0582 19.8025 12.7905C21.0588 11.2665 20.8528 9.02167 19.3288 7.76539C17.8048 6.5091 15.56 6.71505 14.3037 8.23906C13.2122 9.55713 13.2122 11.4724 14.3037 12.7905C12.203 13.8408 10.885 15.9621 10.885 18.3099V20.0605C10.4525 19.6486 9.93762 19.2985 9.40215 19.0307C10.6584 17.5067 10.4525 15.2619 8.92847 14.0056C7.40446 12.7493 5.15963 12.9553 3.90335 14.4793C2.81183 15.7973 2.81183 17.7127 3.90335 19.0307C1.80269 20.0811 0.484619 22.2229 0.484619 24.5501V25.5799C0.484619 26.8979 1.30841 28.0512 2.5441 28.4837V32.8704C2.5441 33.4059 2.97659 33.8384 3.51205 33.8384H9.75227C10.2877 33.8384 10.7202 33.4059 10.7202 32.8704V28.4837C12.0383 28.01 12.9033 26.7126 12.7797 25.3121L12.9239 25.3533V32.8498C12.9239 33.3853 13.3563 33.8178 13.8918 33.8178H20.132C20.6675 33.8178 21.1 33.3853 21.1 32.8498V25.3533C22.418 24.8796 23.283 23.5822 23.1595 22.1817L23.3036 22.2229V32.8292C23.3036 33.3647 23.7361 33.7972 24.2716 33.7972H30.5118C31.0473 33.7972 31.4797 33.3853 31.5003 32.8498V22.2229C32.736 21.811 33.5804 20.6371 33.5598 19.319V12.0491C33.5598 9.70129 32.2418 7.58003 30.1411 6.5297L30.2029 6.55029ZM6.68364 15.1177C7.58981 15.1177 8.31063 15.8385 8.31063 16.7447C8.31063 17.6509 7.58981 18.3717 6.68364 18.3717C5.77747 18.3717 5.05666 17.6509 5.05666 16.7447C5.05666 15.8385 5.77747 15.1177 6.68364 15.1177ZM10.9056 25.5799C10.9056 26.1977 10.4113 26.692 9.79345 26.692C9.25799 26.692 8.8255 27.1245 8.8255 27.6599V31.8819H4.54179V27.6599C4.54179 27.1245 4.1093 26.692 3.57384 26.692C2.95599 26.692 2.46172 26.1977 2.46172 25.5799V24.5501C2.39993 22.2229 4.25346 20.287 6.60126 20.2252C8.94907 20.1634 10.8644 22.017 10.9262 24.3648C10.9262 24.4266 10.9262 24.4883 10.9262 24.5501V25.5799H10.9056ZM17.0634 8.8775C17.9696 8.8775 18.6904 9.59832 18.6904 10.5045C18.6904 11.4107 17.9696 12.1315 17.0634 12.1315C16.1572 12.1315 15.4364 11.4107 15.4364 10.5045C15.4364 9.59832 16.1572 8.8775 17.0634 8.8775ZM21.2853 22.4495C21.2853 23.0673 20.7911 23.5616 20.1732 23.5616C19.6378 23.5616 19.2053 23.9941 19.2053 24.5295V31.8613H14.9216V24.5295C14.9216 23.9941 14.4891 23.5616 13.9536 23.5616C13.3358 23.5616 12.8415 23.0673 12.8415 22.4495V18.2893C12.9033 15.9621 14.8186 14.1086 17.1664 14.1498C19.4318 14.191 21.2441 16.0239 21.3059 18.2893V22.4495H21.2853ZM27.4638 2.65788C28.3699 2.65788 29.0908 3.3787 29.0908 4.28487C29.0908 5.19104 28.3699 5.91186 27.4638 5.91186C26.5576 5.91186 25.8368 5.19104 25.8368 4.28487C25.8368 3.3787 26.5576 2.65788 27.4638 2.65788ZM31.6857 19.3396C31.6857 19.9575 31.1914 20.4518 30.5736 20.4518C30.0381 20.4518 29.6056 20.8843 29.6056 21.4197V31.8819H25.3219V21.4403C25.3219 20.9048 24.8894 20.4724 24.354 20.4724C23.7361 20.4724 23.2418 19.9781 23.2418 19.3602V12.0903C23.3036 9.76308 25.2189 7.90955 27.5667 7.95074C29.8322 7.99193 31.6445 9.82486 31.7063 12.0903V19.3602L31.6857 19.3396Z" fill="#20B9AC"/>
</g>
</svg>
