<svg width="31" height="31" viewBox="0 0 31 31" fill="none" xmlns="http://www.w3.org/2000/svg">
<mask id="mask0_1_152" style="mask-type:luminance" maskUnits="userSpaceOnUse" x="0" y="0" width="31" height="31">
<path d="M30.8089 0.323364H0.145538V30.9867H30.8089V0.323364Z" fill="white"/>
</mask>
<g mask="url(#mask0_1_152)">
<path d="M11.8732 16.3608L10.0807 7.37917C10.0044 6.95965 9.62299 6.65454 9.20347 6.65454H7.41096C6.99144 6.65454 6.61005 6.95965 6.53377 7.37917L4.74127 16.3608C4.66499 16.8566 4.98917 17.3142 5.48497 17.3905C5.94263 17.4668 6.38122 17.1617 6.49564 16.7231L7.06771 13.8436H9.54671L10.1188 16.7231C10.1951 17.2189 10.6527 17.5431 11.1485 17.4668C11.6443 17.3905 11.9685 16.9329 11.8922 16.4371C11.8922 16.418 11.8922 16.3989 11.8922 16.3608H11.8732ZM7.41096 12.0702L8.13559 8.48519H8.45977L9.16533 12.0702H7.41096Z" fill="#20B9AC"/>
<path d="M26.2513 13.8627H23.5626V12.9665C23.5435 12.4707 23.124 12.0893 22.6282 12.1084C22.1705 12.1274 21.7891 12.5088 21.7701 12.9665V13.8627H19.0813C18.5855 13.8627 18.1851 14.2632 18.1851 14.759C18.1851 15.2548 18.5855 15.6552 19.0813 15.6552H19.2911C19.7297 17.1045 20.4543 18.4393 21.4268 19.6026C20.7403 20.2318 20.0348 20.7467 19.4246 21.2425C19.0432 21.5667 19.005 22.1388 19.3101 22.5011C19.6153 22.8634 20.1492 22.9206 20.5306 22.6346C21.1599 22.1388 21.9036 21.5858 22.6663 20.8802C23.4291 21.5667 24.1728 22.1388 24.8021 22.6346C25.2025 22.9397 25.7555 22.8634 26.0607 22.4629C26.3467 22.0816 26.2895 21.5476 25.9272 21.2425C25.2979 20.7467 24.6114 20.2318 23.9249 19.6026C24.8974 18.4393 25.6221 17.1045 26.0607 15.6552H26.2704C26.7662 15.6362 27.1476 15.2166 27.1285 14.7208C27.1095 14.2632 26.7281 13.8818 26.2704 13.8627H26.2513ZM22.6663 18.2868C22.037 17.5049 21.5412 16.6087 21.198 15.6552H24.1537C23.8105 16.6087 23.2956 17.4859 22.6663 18.2868Z" fill="#20B9AC"/>
<path d="M28.1205 5.77716H15.1725L14.7911 2.68795C14.6195 1.33403 13.4754 0.323364 12.1215 0.323364H2.87287C1.38547 0.323364 0.184113 1.52472 0.184113 3.01212V22.8251C0.184113 24.3125 1.38547 25.5138 2.87287 25.5138H10.4434L10.8247 28.603C10.9964 29.9569 12.1405 30.9676 13.4944 30.9676H28.1396C29.627 30.9676 30.8284 29.7663 30.8284 28.2789V8.46593C30.8284 6.97853 29.627 5.77716 28.1396 5.77716H28.1205ZM2.8538 23.7404C2.358 23.7404 1.95755 23.3399 1.95755 22.8441V3.03119C1.95755 2.53539 2.358 2.13494 2.8538 2.13494H12.1024C12.56 2.13494 12.9414 2.47819 12.9986 2.91678L15.592 23.7404H2.8538ZM12.5219 27.9737L12.2168 25.5329H14.6386L12.5219 27.9737ZM28.9977 28.2979C28.9977 28.7937 28.5973 29.1942 28.1015 29.1942H13.8568L17.2701 25.2468C17.4418 25.0562 17.518 24.7892 17.4799 24.5222L15.3632 7.58874H28.1015C28.5973 7.58874 28.9977 7.98919 28.9977 8.48499V28.2979Z" fill="#20B9AC"/>
</g>
</svg>
