<svg width="33" height="33" viewBox="0 0 33 33" fill="none" xmlns="http://www.w3.org/2000/svg">
<mask id="mask0_1_181" style="mask-type:luminance" maskUnits="userSpaceOnUse" x="0" y="0" width="33" height="33">
<path d="M32.1582 0.729004H0.268311V32.6189H32.1582V0.729004Z" fill="white"/>
</mask>
<g mask="url(#mask0_1_181)">
<path d="M30.2741 6.55967C29.58 4.08067 27.7356 2.09747 25.3161 1.22487C22.262 0.272931 18.9302 0.729066 16.2331 2.45445C13.5359 0.729066 10.2042 0.272931 7.15003 1.22487C4.73053 2.07764 2.86632 4.08067 2.19204 6.55967C1.10128 10.1889 1.81523 14.0958 4.11574 17.1103C5.10734 18.4192 5.80146 19.9463 6.1386 21.5527C6.29726 22.2666 6.41625 23.0401 6.51541 23.873C6.71373 25.8959 7.1897 27.8989 7.90365 29.8028C8.63743 31.548 9.56954 32.4801 10.7198 32.5991H10.9181C12.0287 32.5991 12.9608 31.6075 13.6748 29.6243C14.2896 27.8394 14.6862 25.995 14.8647 24.111C14.9242 23.1392 15.2217 22.2071 15.7373 21.3742C15.9356 21.1164 16.3124 21.0569 16.5702 21.2552C16.6099 21.2948 16.6496 21.3345 16.6892 21.3742C17.2049 22.2071 17.5023 23.1392 17.5618 24.111C17.7403 25.995 18.1568 27.8394 18.7518 29.6243C19.4657 31.6075 20.3978 32.5991 21.5084 32.5991H21.7067C22.8371 32.4801 23.7891 31.548 24.5229 29.8028C25.2368 27.8989 25.7128 25.8959 25.9111 23.873C26.0103 23.0401 26.1491 22.2666 26.2879 21.5527C26.6251 19.9463 27.3192 18.4192 28.3306 17.0905C30.6311 14.0958 31.3451 10.1691 30.2345 6.53984L30.2741 6.55967ZM26.8432 15.9997C25.693 17.5268 24.8798 19.3117 24.4832 21.1759C24.3245 21.9295 24.1857 22.7624 24.0667 23.635C23.4123 28.6922 22.2025 30.6556 21.5282 30.7547C21.3894 30.6952 20.9134 30.2391 20.3978 28.712C19.902 27.1651 19.5847 25.5587 19.4062 23.9325C19.3071 22.6434 18.9104 21.394 18.1965 20.3231C17.4032 19.2125 15.8761 18.9547 14.7854 19.748C14.5672 19.9066 14.3689 20.1049 14.2102 20.3231C13.5161 21.4138 13.0996 22.6434 13.0005 23.9325C12.8418 25.5587 12.5047 27.1651 12.0089 28.712C11.4932 30.2391 11.0173 30.6952 10.8785 30.7547C10.2042 30.6754 8.99441 28.712 8.33996 23.635C8.22096 22.7624 8.08214 21.9295 7.92348 21.1759C7.52684 19.2918 6.71373 17.5268 5.56347 15.9997C3.61994 13.481 3.00515 10.1889 3.91742 7.1348C4.43305 5.23093 5.84112 3.70387 7.6855 3.00975C9.51004 2.43462 11.4734 2.47428 13.2583 3.12874C14.0912 3.40639 14.8845 3.82286 15.6183 4.31866L16.1934 4.77479L16.7686 4.31866C17.4825 3.80303 18.2758 3.40639 19.1286 3.12874C20.9333 2.47428 22.8966 2.43462 24.7212 3.00975C26.5656 3.68404 27.9736 5.23093 28.4893 7.1348C29.4015 10.1889 28.7867 13.481 26.8432 15.9997Z" fill="#20B9AC"/>
</g>
</svg>
