<svg width="21" height="21" viewBox="0 0 21 21" fill="none" xmlns="http://www.w3.org/2000/svg">
<g clip-path="url(#clip0_1_567)">
<path d="M6.30048 1.62964H0.59082V20.4769H20.4092V1.62964H14.6035" stroke="#1FB0A4" stroke-width="0.80042" stroke-linecap="round" stroke-linejoin="round"/>
<path d="M13.387 0.615723H7.61335C7.05839 0.615723 6.59949 1.11732 6.59949 1.72564V2.01379C6.59949 2.62211 7.05839 3.12371 7.61335 3.12371H13.387C13.942 3.12371 14.4009 2.62211 14.4009 2.01379V1.72564C14.4009 1.11732 13.942 0.615723 13.387 0.615723Z" stroke="#1FB0A4" stroke-width="0.80042" stroke-linecap="round" stroke-linejoin="round"/>
<path d="M9.73695 7.17924C10.9536 7.14722 12.8959 5.69579 14.3474 6.40016C17.3143 7.83025 14.1766 11.715 14.1766 12.7075C14.1766 14.0949 14.1659 16.2827 13.2161 17.3072C12.5438 18.0436 12.0635 17.4566 12.1702 16.4855C12.2556 15.7491 12.4691 14.8313 12.0742 14.0735C11.6153 13.1984 10.8682 13.0276 9.98241 13.3371C7.94401 14.0522 9.72628 16.9764 8.86182 17.6381C6.98351 17.4887 7.05821 14.319 7.02619 12.7929C7.02619 12.2379 6.30048 11.3628 6.06569 10.6797C5.42535 8.8121 4.77435 7.06184 7.04754 6.36815C7.84796 6.12268 8.60569 6.30411 9.23535 6.76302C9.47014 6.93378 9.72628 7.16857 10.0678 7.39268C10.3773 7.58478 10.7401 7.76621 11.2204 7.85159" stroke="#1FB0A4" stroke-width="0.80042" stroke-linecap="round" stroke-linejoin="round"/>
</g>
<defs>
<clipPath id="clip0_1_567">
<rect width="20.6295" height="20.6615" fill="white" transform="translate(0.185547 0.209961)"/>
</clipPath>
</defs>
</svg>
