<svg width="20" height="20" viewBox="0 0 20 20" fill="none" xmlns="http://www.w3.org/2000/svg">
<g clip-path="url(#clip0_1_573)">
<path d="M3.83933 9.76174L11.0311 2.56999C11.3631 2.23795 11.8914 2.23795 12.2234 2.56999L17.3625 7.70911C17.6946 8.04115 17.6946 8.56941 17.3625 8.90145L10.1708 16.0932C9.83875 16.4252 9.3105 16.4252 8.97845 16.0932L3.83933 10.9541C3.50729 10.622 3.50729 10.0938 3.83933 9.76174Z" stroke="#1FB0A4" stroke-width="0.80042" stroke-linecap="round" stroke-linejoin="round"/>
<path d="M19.1006 0.849121L14.7997 5.13937" stroke="#1FB0A4" stroke-width="0.80042" stroke-linecap="round" stroke-linejoin="round"/>
<path d="M6.42217 13.5281L3.83948 16.1108" stroke="#1FB0A4" stroke-width="0.80042" stroke-linecap="round" stroke-linejoin="round"/>
<path d="M6.92361 19.3764L0.573608 13.0264" stroke="#1FB0A4" stroke-width="0.80042" stroke-linecap="round" stroke-linejoin="round"/>
<path d="M15.8993 10.3903L13.6581 8.13843" stroke="#1FB0A4" stroke-width="0.80042" stroke-linecap="round" stroke-linejoin="round"/>
<path d="M13.8285 12.4606L11.5873 10.2087" stroke="#1FB0A4" stroke-width="0.80042" stroke-linecap="round" stroke-linejoin="round"/>
<path d="M11.7582 14.5312L9.50635 12.29" stroke="#1FB0A4" stroke-width="0.80042" stroke-linecap="round" stroke-linejoin="round"/>
</g>
<defs>
<clipPath id="clip0_1_573">
<rect width="19.3382" height="19.3382" fill="white" transform="translate(0.167969 0.443359)"/>
</clipPath>
</defs>
</svg>
