<svg width="26" height="13" viewBox="0 0 26 13" fill="none" xmlns="http://www.w3.org/2000/svg">
<g clip-path="url(#clip0_1_583)">
<path d="M1.99839 9.68064L1.81696 9.62728C1.39007 9.48854 1.11259 9.02963 0.963177 8.23988C0.888471 7.90904 0.813765 7.5782 0.749731 7.24736C0.685698 6.93787 0.632336 6.6177 0.589647 6.3082C0.493597 5.6145 0.79242 5.19829 1.49679 5.04887H1.50746L3.36444 4.76072C3.68461 4.71803 3.89805 4.67534 4.00477 4.64333C4.19687 4.57929 4.42099 4.47257 4.6878 4.31249C4.90124 4.17375 5.11469 4.01366 5.32813 3.82156L7.00368 2.04997C7.56931 1.52703 8.29503 1.24955 9.1915 1.21753H14.1541C14.1541 1.21753 14.2075 1.21753 14.2288 1.21753C14.9652 1.24955 15.5628 1.5377 16.0111 2.06064L17.6333 3.81089C18.0602 4.20576 18.4977 4.48324 18.9566 4.63266C19.0954 4.68602 19.2448 4.71803 19.4049 4.73938C19.6396 4.78207 19.8851 4.81408 20.1199 4.85677C21.2618 5.04887 22.4038 5.2303 23.535 5.4224C24.3461 5.5398 24.6983 5.97736 24.5916 6.70308C24.5382 7.01257 24.4849 7.33274 24.4315 7.64224C24.3675 7.97308 24.3034 8.29324 24.2181 8.62408M16.6514 4.80341L6.60881 4.63266M16.6941 10.1289H9.85318M7.54797 8.37862C7.09973 7.93039 6.55545 7.70627 5.92578 7.70627C5.29612 7.70627 4.74116 7.93039 4.3036 8.37862C3.85536 8.82686 3.63124 9.37114 3.63124 10.0008C3.63124 10.6305 3.85536 11.1748 4.3036 11.623C4.75183 12.0712 5.29612 12.2953 5.92578 12.2953C6.55545 12.2953 7.09973 12.0712 7.54797 11.623C7.9962 11.1748 8.22032 10.6305 8.22032 10.0008C8.22032 9.37114 7.9962 8.81618 7.54797 8.37862ZM20.6322 7.70627C20.0025 7.70627 19.4582 7.93039 19.01 8.37862C18.5617 8.82686 18.3376 9.37114 18.3376 10.0008C18.3376 10.6305 18.5617 11.1748 19.01 11.623C19.4582 12.0712 19.9918 12.2953 20.6322 12.2953C21.2725 12.2953 21.8061 12.0712 22.2544 11.623C22.7026 11.1748 22.9267 10.6305 22.9267 10.0008C22.9267 9.37114 22.7026 8.81618 22.2544 8.37862C21.8061 7.93039 21.2725 7.70627 20.6322 7.70627Z" stroke="#1FB0A4" stroke-width="0.80042" stroke-linecap="round" stroke-linejoin="round"/>
</g>
<defs>
<clipPath id="clip0_1_583">
<rect width="24.845" height="11.8889" fill="white" transform="translate(0.17334 0.812012)"/>
</clipPath>
</defs>
</svg>
