<svg width="22" height="21" viewBox="0 0 22 21" fill="none" xmlns="http://www.w3.org/2000/svg">
<g clip-path="url(#clip0_1_513)">
<path d="M6.92491 5.12986L6.64743 2.67524C6.59407 2.21633 8.80323 1.21313 11.0017 1.21313C13.2002 1.21313 15.4094 2.21633 15.356 2.67524L15.0785 5.12986" stroke="#1FB0A4" stroke-width="0.80042" stroke-linecap="round" stroke-linejoin="round"/>
<path d="M1.69578 20.6048L1.37561 18.3743V17.9901C1.37561 17.1363 2.3788 16.6454 3.21124 16.5067C3.96897 16.3679 6.82914 15.845 7.74695 15.29H7.80032C9.07032 20.4021 12.9017 20.3914 14.193 15.29H14.2464C15.1749 15.845 18.0244 16.3786 18.7821 16.5067C19.6145 16.6561 20.6177 17.147 20.6177 17.9901V18.3743L20.2975 20.6048" stroke="#1FB0A4" stroke-width="0.80042" stroke-linecap="round" stroke-linejoin="round"/>
<path d="M17.0847 20.604H14.2886" stroke="#1FB0A4" stroke-width="0.80042" stroke-linecap="round" stroke-linejoin="round"/>
<path d="M14.4811 11.7032C13.2751 15.844 8.71806 15.844 7.51209 11.7032H7.42671C7.42671 11.7032 7.36268 11.7139 7.34134 11.7139C7.07453 11.7139 6.85041 11.5431 6.67965 11.2763C6.45554 10.9455 6.32747 10.4866 6.33814 10.081C6.33814 9.56875 6.51957 9.13118 6.96781 9.09917C7.2773 9.07782 7.18125 8.71496 7.18125 8.28807C7.18125 7.42362 7.34134 6.99673 7.5868 6.8153C7.99234 6.36707 8.6647 6.80463 9.11293 7.14614C9.76394 7.64774 9.9347 7.94656 11.0019 7.96791C12.0692 7.94656 12.2399 7.64774 12.8909 7.14614C13.3392 6.80463 14.0115 6.36707 14.4171 6.8153C14.6518 6.99673 14.8226 7.43429 14.8226 8.28807C14.8226 8.71496 14.7265 9.07782 15.036 9.09917C15.4843 9.12051 15.6657 9.56875 15.6657 10.081C15.6657 10.4972 15.5376 10.9561 15.3242 11.2763C15.1534 11.5431 14.9293 11.7139 14.6625 11.7139C14.6305 11.7139 14.6092 11.7139 14.5771 11.7139H14.4918L14.4811 11.7032Z" stroke="#1FB0A4" stroke-width="0.80042" stroke-linecap="round" stroke-linejoin="round"/>
</g>
<defs>
<clipPath id="clip0_1_513">
<rect width="20.0532" height="20.1919" fill="white" transform="translate(0.969604 0.807617)"/>
</clipPath>
</defs>
</svg>
