<svg width="22" height="21" viewBox="0 0 22 21" fill="none" xmlns="http://www.w3.org/2000/svg">
<path d="M14.5483 10.1472C16.4907 10.1472 18.0702 11.7267 18.0702 13.6691C18.0702 15.6114 16.4907 17.1909 14.5483 17.1909C12.606 17.1909 11.0265 15.6114 11.0265 13.6691C11.0265 11.7267 12.606 10.1472 14.5483 10.1472Z" stroke="#1FB0A4" stroke-width="0.80042" stroke-miterlimit="22.93"/>
<path d="M20.8559 5.10983V13.4555C20.8559 13.8397 20.5251 14.1599 20.1409 14.1706L18.3906 14.2453M20.8559 5.10983H16.9072C16.5123 5.10983 16.1921 4.78966 16.1921 4.39478V0.446045L20.8666 5.1205L20.8559 5.10983ZM10.7386 14.2453L2.07271 14.1706C1.68851 14.1706 1.35767 13.8504 1.35767 13.4555V1.16109C1.35767 0.766213 1.67783 0.446045 2.07271 0.446045H16.1814M3.86565 3.56235H13.6628M3.86565 5.80352H13.6628M3.86565 8.03403H13.6628" stroke="#1FB0A4" stroke-width="0.80042" stroke-linecap="round" stroke-linejoin="round"/>
<path d="M14.5485 11.9937C15.477 11.9937 16.224 12.7407 16.224 13.6692C16.224 14.5977 15.4663 15.3447 14.5485 15.3447C13.6307 15.3447 12.8729 14.5977 12.8729 13.6692C12.8729 12.7407 13.62 11.9937 14.5485 11.9937Z" stroke="#1FB0A4" stroke-width="0.80042" stroke-miterlimit="22.93"/>
<path d="M11.4961 15.452L9.86328 18.4189L12.9476 19.9237L14.5804 17.3837L16.2133 19.9237L19.3403 18.4296L17.6861 15.2812" stroke="#1FB0A4" stroke-width="0.80042" stroke-linecap="round" stroke-linejoin="round"/>
</svg>
