<svg width="24" height="11" viewBox="0 0 24 11" fill="none" xmlns="http://www.w3.org/2000/svg">
<g clip-path="url(#clip0_1_551)">
<path d="M0.459595 5.13288C0.459595 2.6249 2.48733 0.597168 4.99531 0.597168C7.50329 0.597168 9.48833 2.46481 11.5374 5.14355C11.6868 5.33565 11.8256 5.51708 11.975 5.69851C13.8746 8.07843 15.753 9.68994 18.0902 9.68994C20.5982 9.68994 22.6366 7.65154 22.6366 5.14355" stroke="#1FB0A4" stroke-width="0.80042" stroke-linecap="round" stroke-linejoin="round"/>
<path d="M0.459595 5.13288C0.459595 7.64087 2.498 9.67927 5.00598 9.67927C7.51396 9.67927 9.49901 7.81162 11.5481 5.13288C13.5972 2.45414 15.5822 0.597168 18.0902 0.597168C20.5982 0.597168 22.6366 2.63557 22.6366 5.14355" stroke="#1FB0A4" stroke-width="0.80042" stroke-linecap="round" stroke-linejoin="round"/>
</g>
<defs>
<clipPath id="clip0_1_551">
<rect width="22.9774" height="9.88252" fill="white" transform="translate(0.053833 0.19165)"/>
</clipPath>
</defs>
</svg>
