<svg width="21" height="20" viewBox="0 0 21 20" fill="none" xmlns="http://www.w3.org/2000/svg">
<path d="M2.21556 11.3401C2.09817 11.3401 1.99145 11.276 1.93809 11.1693C1.86338 11.0199 1.93809 10.8385 2.07683 10.7638C3.99783 9.84595 5.31052 8.45856 6.07893 7.44469C6.91136 6.34545 7.28489 5.44898 7.28489 5.44898C7.34893 5.29956 7.53035 5.22486 7.67977 5.28889C7.83985 5.35293 7.90388 5.53435 7.83985 5.68377C7.82918 5.72646 7.4343 6.64427 6.56985 7.79688C5.76943 8.8641 4.38204 10.3369 2.33296 11.3187C2.29027 11.3401 2.24758 11.3507 2.20489 11.3507" fill="#1FB0A4"/>
<path d="M7.16744 17.0816C6.92198 17.0816 6.39903 17.0389 5.19307 16.8681C4.12584 16.7187 3.05862 16.5266 2.58904 16.4199C2.42895 16.3772 2.32223 16.2171 2.36492 16.057C2.40761 15.8969 2.56769 15.7902 2.72777 15.8329C3.67761 16.057 6.53777 16.4732 7.13542 16.4839C7.16744 16.3772 7.18878 16.1317 7.16744 15.5448C7.16744 15.4807 7.16744 15.438 7.16744 15.406C7.16744 15.2353 7.27416 15.0858 7.48761 14.9471L7.06072 14.5842C6.98601 14.5202 6.94332 14.4135 6.95399 14.3068C6.96467 14.2 7.0287 14.1147 7.12475 14.072L7.97853 13.6771C7.61567 12.9621 7.61567 12.802 7.61567 12.7486C7.61567 12.4071 7.97853 12.3324 8.48013 12.215C8.55483 12.2043 8.64021 12.183 8.73626 12.1616C8.62954 12.0442 8.50147 11.9162 8.39475 11.7988C7.81845 11.1905 7.46626 10.7956 7.43425 10.4968C7.38088 10.0485 7.69038 9.23744 7.76509 9.03467C8.07458 7.88206 7.43425 6.92156 7.0287 6.44131C6.92198 6.31324 6.93265 6.12114 7.06072 6.01442C7.18878 5.90769 7.38088 5.91837 7.48761 6.04643C7.96786 6.61206 8.72559 7.78601 8.34139 9.20542C8.34139 9.2161 8.34139 9.22677 8.33072 9.23744C8.19198 9.58963 8.01055 10.1766 8.03189 10.4114C8.08525 10.5821 8.56551 11.0944 8.83231 11.3719C9.34458 11.9162 9.53668 12.119 9.47265 12.3537C9.40862 12.6312 9.08845 12.6953 8.6082 12.802C8.51214 12.8233 8.38408 12.8553 8.27735 12.8767C8.36273 13.0795 8.52282 13.389 8.66156 13.6558C8.70425 13.7305 8.71492 13.8158 8.6829 13.9012C8.66156 13.9759 8.59752 14.0506 8.52282 14.0827L7.80778 14.4135L8.23467 14.787C8.32004 14.8617 8.35206 14.9684 8.33072 15.0752C8.30937 15.1819 8.23467 15.2673 8.12794 15.2993C7.9892 15.342 7.82912 15.4167 7.75441 15.47C7.75441 15.47 7.75441 15.4914 7.75441 15.5021C7.78643 16.3879 7.73307 16.9215 7.35954 17.0495C7.32752 17.0495 7.28483 17.0709 7.13542 17.0709" fill="#1FB0A4"/>
<path d="M3.51739 19.1839C3.51739 19.1839 3.49605 19.1839 3.48537 19.1839C3.31462 19.1626 3.19722 19.0131 3.21857 18.8424C3.41067 17.2842 3.94428 16.3024 3.96563 16.2597C4.051 16.1103 4.23243 16.0569 4.38184 16.1423C4.53126 16.2277 4.58462 16.4091 4.49924 16.5585C4.49924 16.5585 3.99764 17.487 3.82689 18.9171C3.80554 19.0665 3.67748 19.1839 3.52806 19.1839" fill="#1FB0A4"/>
<path d="M8.3733 4.02935C8.2986 4.02935 8.21322 3.99733 8.14919 3.9333C7.67961 3.45305 6.68709 2.80204 5.98272 2.52456C4.02969 1.75615 2.25809 1.88422 1.11616 2.12968C0.956077 2.1617 0.785321 2.06565 0.753304 1.89489C0.721287 1.73481 0.817338 1.56405 0.988094 1.53204C2.20473 1.26523 4.1044 1.12649 6.20683 1.95893C6.99658 2.26842 8.06381 2.97279 8.58675 3.51708C8.70414 3.63447 8.70414 3.82658 8.58675 3.94397C8.52272 3.99733 8.44801 4.02935 8.3733 4.02935Z" fill="#1FB0A4"/>
<path d="M10.4435 12.6411C10.3688 12.6411 10.2941 12.609 10.2301 12.5557C10.1447 12.4703 10.1127 12.3422 10.1554 12.2355L10.8171 10.3892C9.58975 9.2793 8.88538 7.71047 8.88538 6.0456C8.88538 2.8119 11.5108 0.186523 14.7445 0.186523C17.9781 0.186523 20.6035 2.8119 20.6035 6.0456C20.6035 9.2793 17.9781 11.9047 14.7445 11.9047C14.1361 11.9047 13.5385 11.8086 12.9622 11.6272L10.5609 12.6197C10.5609 12.6197 10.4862 12.6411 10.4435 12.6411ZM14.7445 0.794843C11.8523 0.794843 9.49369 3.15341 9.49369 6.0456C9.49369 7.59308 10.1767 9.06585 11.3613 10.0584C11.4574 10.1438 11.5001 10.2718 11.4574 10.3892L10.9558 11.7873L12.8341 11.0082C12.8981 10.9762 12.9835 10.9762 13.0476 11.0082C13.5918 11.1896 14.1575 11.2857 14.7338 11.2857C17.626 11.2857 19.9845 8.92711 19.9845 6.03493C19.9845 3.14274 17.6366 0.794843 14.7445 0.794843Z" fill="#1FB0A4"/>
<path d="M14.83 4.17856H10.8385C10.6678 4.17856 10.5291 4.03982 10.5291 3.86907C10.5291 3.69831 10.6678 3.55957 10.8385 3.55957H14.83C15.0007 3.55957 15.1395 3.69831 15.1395 3.86907C15.1395 4.03982 15.0007 4.17856 14.83 4.17856Z" fill="#1FB0A4"/>
<path d="M12.8235 4.17834C12.6528 4.17834 12.514 4.0396 12.514 3.86884V3.08977C12.514 2.91901 12.6528 2.78027 12.8235 2.78027C12.9943 2.78027 13.133 2.91901 13.133 3.08977V3.86884C13.133 4.0396 12.9943 4.17834 12.8235 4.17834Z" fill="#1FB0A4"/>
<path d="M11.0095 7.46596C10.8921 7.46596 10.7747 7.39125 10.7214 7.27386C10.6573 7.11377 10.732 6.94302 10.8921 6.87898C11.9166 6.47344 12.6957 5.85444 13.208 5.03268C13.5922 4.41369 13.6669 3.91209 13.6669 3.90142C13.6882 3.73066 13.8483 3.62394 14.0084 3.64528C14.1685 3.66663 14.2859 3.82671 14.2645 3.9868C14.2539 4.08285 13.9017 6.35604 11.1056 7.44461C11.0735 7.45528 11.0309 7.46596 10.9988 7.46596" fill="#1FB0A4"/>
<path d="M14.5953 7.4651C14.5953 7.4651 14.5206 7.4651 14.4885 7.44376C12.7916 6.78208 11.9485 5.55477 11.7244 5.19191C11.639 5.05317 11.6817 4.86107 11.8311 4.77569C11.9699 4.69031 12.162 4.733 12.2474 4.88241C12.4395 5.20258 13.1972 6.29115 14.7127 6.87813C14.8727 6.94216 14.9474 7.11292 14.8834 7.273C14.8407 7.3904 14.7233 7.4651 14.5953 7.4651Z" fill="#1FB0A4"/>
<path d="M15.2142 9.01339C15.2142 9.01339 15.1395 9.01339 15.0968 8.99205C14.9367 8.92801 14.862 8.75726 14.9261 8.59717L16.5483 4.54171C16.5909 4.42432 16.7083 4.34961 16.8257 4.34961C16.9431 4.34961 17.0605 4.42432 17.1032 4.54171L18.7254 8.59717C18.7894 8.75726 18.7147 8.92801 18.5546 8.99205C18.3946 9.05608 18.2238 8.98137 18.1598 8.82129L16.8151 5.4702L15.4704 8.82129C15.4277 8.93868 15.3103 9.01339 15.1929 9.01339" fill="#1FB0A4"/>
<path d="M17.9035 7.68979H15.7477C15.577 7.68979 15.4382 7.55105 15.4382 7.3803C15.4382 7.20954 15.577 7.0708 15.7477 7.0708H17.9035C18.0743 7.0708 18.213 7.20954 18.213 7.3803C18.213 7.55105 18.0743 7.68979 17.9035 7.68979Z" fill="#1FB0A4"/>
</svg>
