<svg width="21" height="21" viewBox="0 0 21 21" fill="none" xmlns="http://www.w3.org/2000/svg">
<path d="M13.9401 12.1306C10.7491 12.1306 8.15576 13.1872 8.15576 14.4892V17.4881C8.15576 18.7901 10.7491 19.8467 13.9401 19.8467C17.1311 19.8467 19.7245 18.7901 19.7245 17.4881V14.4892C19.7245 13.1872 17.1311 12.1306 13.9401 12.1306Z" stroke="#1FB0A4" stroke-width="0.693697" stroke-linecap="round" stroke-linejoin="round"/>
<path d="M16.1493 16.6669C15.4663 16.7843 14.7192 16.8483 13.9401 16.8483C10.7491 16.8483 8.15576 15.7918 8.15576 14.4897" stroke="#1FB0A4" stroke-width="0.693697" stroke-linecap="round" stroke-linejoin="round"/>
<path d="M19.7244 14.4788C19.7244 15.2045 18.924 15.8555 17.6647 16.2824" stroke="#1FB0A4" stroke-width="0.693697" stroke-linecap="round" stroke-linejoin="round"/>
<path d="M10.4718 16.3681L17.11 12.5154" stroke="#1FB0A4" stroke-width="0.693697" stroke-linecap="round" stroke-linejoin="round"/>
<path d="M5.15689 6.54938C5.86419 6.54938 6.43756 5.976 6.43756 5.26871C6.43756 4.56141 5.86419 3.98804 5.15689 3.98804C4.4496 3.98804 3.87622 4.56141 3.87622 5.26871C3.87622 5.976 4.4496 6.54938 5.15689 6.54938Z" stroke="#1FB0A4" stroke-width="0.693697" stroke-miterlimit="10" stroke-linecap="round"/>
<path d="M10.3008 6.54938C11.0081 6.54938 11.5815 5.976 11.5815 5.26871C11.5815 4.56141 11.0081 3.98804 10.3008 3.98804C9.59352 3.98804 9.02014 4.56141 9.02014 5.26871C9.02014 5.976 9.59352 6.54938 10.3008 6.54938Z" stroke="#1FB0A4" stroke-width="0.693697" stroke-miterlimit="10" stroke-linecap="round"/>
<path d="M5.15689 10.8392C5.86419 10.8392 6.43756 10.2658 6.43756 9.5585C6.43756 8.85121 5.86419 8.27783 5.15689 8.27783C4.4496 8.27783 3.87622 8.85121 3.87622 9.5585C3.87622 10.2658 4.4496 10.8392 5.15689 10.8392Z" stroke="#1FB0A4" stroke-width="0.693697" stroke-miterlimit="10" stroke-linecap="round"/>
<path d="M5.15689 15.1187C5.86419 15.1187 6.43756 14.5453 6.43756 13.838C6.43756 13.1307 5.86419 12.5574 5.15689 12.5574C4.4496 12.5574 3.87622 13.1307 3.87622 13.838C3.87622 14.5453 4.4496 15.1187 5.15689 15.1187Z" stroke="#1FB0A4" stroke-width="0.693697" stroke-miterlimit="10" stroke-linecap="round"/>
<path d="M10.3008 10.8392C11.0081 10.8392 11.5815 10.2658 11.5815 9.5585C11.5815 8.85121 11.0081 8.27783 10.3008 8.27783C9.59352 8.27783 9.02014 8.85121 9.02014 9.5585C9.02014 10.2658 9.59352 10.8392 10.3008 10.8392Z" stroke="#1FB0A4" stroke-width="0.693697" stroke-miterlimit="10" stroke-linecap="round"/>
<path d="M6.43734 18.1289H2.58465C1.86961 18.1289 1.30398 17.5525 1.30398 16.8482V2.26986C1.29331 1.55482 1.86961 0.978516 2.58465 0.978516H12.8727C13.5878 0.978516 14.1534 1.55482 14.1534 2.25919V10.4555" stroke="#1FB0A4" stroke-width="0.693697" stroke-linecap="round" stroke-linejoin="round"/>
</svg>
