<svg width="22" height="17" viewBox="0 0 22 17" fill="none" xmlns="http://www.w3.org/2000/svg">
<g clip-path="url(#clip0_1_556)">
<path d="M20.7813 6.18994H17.9211V14.0661H20.7813" stroke="#1FB0A4" stroke-width="0.747059" stroke-linejoin="round"/>
<path d="M9.59657 14.1731C12.3432 14.1731 14.5698 11.9465 14.5698 9.19984C14.5698 6.45317 12.3432 4.22656 9.59657 4.22656C6.8499 4.22656 4.62329 6.45317 4.62329 9.19984C4.62329 11.9465 6.8499 14.1731 9.59657 14.1731Z" stroke="#1FB0A4" stroke-width="0.747059" stroke-miterlimit="10"/>
<path d="M6.49084 9.19962C6.49084 7.48139 7.87824 6.09399 9.59647 6.09399" stroke="#1FB0A4" stroke-width="0.747059" stroke-miterlimit="10" stroke-linecap="round"/>
<path d="M15.2526 4.07699L12.83 0.811279H6.36264L3.94003 4.07699H0.898438V16.3394H20.7809V4.07699H15.2526Z" stroke="#1FB0A4" stroke-width="0.747059" stroke-linecap="round" stroke-linejoin="round"/>
<path d="M14.068 7.02295H17.9207" stroke="#1FB0A4" stroke-width="0.747059" stroke-linecap="round" stroke-linejoin="round"/>
<path d="M0.898438 7.02295H5.12466" stroke="#1FB0A4" stroke-width="0.747059" stroke-linecap="round" stroke-linejoin="round"/>
<path d="M18.8491 2.21997H17.0455" stroke="#1FB0A4" stroke-width="0.747059" stroke-linecap="round" stroke-linejoin="round"/>
</g>
<defs>
<clipPath id="clip0_1_556">
<rect width="20.6295" height="16.2752" fill="white" transform="translate(0.525146 0.4375)"/>
</clipPath>
</defs>
</svg>
