<svg width="31" height="31" viewBox="0 0 31 31" fill="none" xmlns="http://www.w3.org/2000/svg">
<mask id="mask0_1_170" style="mask-type:luminance" maskUnits="userSpaceOnUse" x="0" y="0" width="31" height="31">
<path d="M30.6967 0.323364H0.0333862V30.9867H30.6967V0.323364Z" fill="white"/>
</mask>
<g mask="url(#mask0_1_170)">
<path d="M29.1903 7.58896C28.847 7.45548 28.4656 7.53175 28.2177 7.77965C25.2429 10.7545 22.0965 9.28612 18.4543 7.60803C15.7465 6.34946 12.7907 4.97648 9.89221 5.81552C10.4261 3.39373 8.91968 0.991007 6.49788 0.457068C4.07609 -0.0768702 1.67337 1.4296 1.13943 3.85139C0.758045 5.58669 1.4064 7.3792 2.83659 8.42801V30.1097C2.83659 30.6055 3.23705 31.006 3.73285 31.006H7.31786C7.81366 31.006 8.21411 30.6055 8.21411 30.1097V23.1876C11.1126 20.556 14.1828 21.9862 17.7106 23.6262C19.7891 24.7703 22.0774 25.4759 24.442 25.6857C26.368 25.6857 28.1987 24.8657 29.4954 23.4546C29.667 23.2829 29.7623 23.0541 29.7623 22.8253V8.44708C29.7623 8.08476 29.5526 7.76058 29.2093 7.60803L29.1903 7.58896ZM6.38347 29.1944H4.59096V9.22891C5.18211 9.34333 5.79232 9.34333 6.38347 9.22891V29.1944ZM5.48721 7.53175C3.99981 7.53175 2.77938 6.31132 2.77938 4.82392C2.77938 3.33652 3.99981 2.11609 5.48721 2.11609C6.97461 2.11609 8.19505 3.33652 8.19505 4.82392C8.19505 6.31132 6.97461 7.51268 5.48721 7.53175ZM27.9317 22.4058C25.0332 25.0373 21.963 23.6071 18.4352 21.9672C15.2125 20.4798 11.5894 18.8017 8.17598 20.9184V8.79032C11.0745 6.15877 14.1446 7.58896 17.6725 9.22891C19.751 10.3731 22.0393 11.0786 24.4039 11.2884C25.6434 11.2884 26.8829 10.9451 27.9317 10.2968V22.4248V22.4058Z" fill="#20B9AC"/>
</g>
</svg>
