<svg width="45" height="45" viewBox="0 0 45 45" fill="none" xmlns="http://www.w3.org/2000/svg">
<path fill-rule="evenodd" clip-rule="evenodd" d="M22.7053 0.541504C34.8995 0.541504 44.7845 10.4269 44.7845 22.6208C44.7845 34.8146 34.8991 44.7001 22.7053 44.7001C10.5114 44.7001 0.625977 34.8146 0.625977 22.6208C0.625977 10.4269 10.5114 0.541504 22.7053 0.541504ZM19.3695 19.4627L17.4565 19.4559C17.3465 19.4555 17.2518 19.4117 17.1797 19.3279C17.108 19.2436 17.0796 19.144 17.0963 19.0353L17.2135 18.2758C17.2392 18.1099 17.369 17.9859 17.5362 17.9684L26.3038 17.0429C26.4228 17.0303 26.5314 17.0713 26.6121 17.1601C26.6928 17.2485 26.7239 17.3594 26.7004 17.477L23.4396 33.8684C23.3345 34.3954 23.8151 34.8705 24.3312 34.7204C25.4117 34.4062 26.2398 33.4911 27.1048 32.3286C27.1715 32.2389 27.2648 32.1884 27.3766 32.1817C27.4884 32.1753 27.5871 32.2146 27.6637 32.2957L28.2177 32.8822C28.3413 33.0133 28.3521 33.2112 28.2425 33.3546C24.6233 38.0994 16.609 40.8649 17.9063 34.0632L20.4419 20.7645C20.5055 20.4327 20.4257 20.1222 20.2107 19.8616C19.9961 19.6011 19.7063 19.4631 19.3686 19.4622L19.3695 19.4627ZM24.4249 7.107C26.3971 7.107 27.996 8.70589 27.996 10.678C27.996 12.6501 26.3971 14.249 24.4249 14.249C22.4528 14.249 20.8539 12.6501 20.8539 10.678C20.8539 8.70589 22.4528 7.107 24.4249 7.107Z" fill="#1FAFA3" fill-opacity="0.5"/>
</svg>
