<svg width="34" height="29" viewBox="0 0 34 29" fill="none" xmlns="http://www.w3.org/2000/svg">
<g clip-path="url(#clip0_1_778)">
<path fill-rule="evenodd" clip-rule="evenodd" d="M27.156 24.2152L25.8541 19.4486L25.8631 19.4337L25.9094 19.3571C25.9378 19.3096 25.9658 19.2618 25.9933 19.2138L26.0315 19.1469C26.0559 19.1037 26.0801 19.0602 26.1037 19.0166L26.1509 18.9287C26.1739 18.8855 26.1965 18.8422 26.2188 18.7987C26.2357 18.7658 26.2523 18.733 26.2689 18.6999C26.2889 18.6599 26.3087 18.6195 26.3283 18.5791C26.3456 18.5431 26.3629 18.5068 26.3801 18.4704C26.3963 18.4356 26.4126 18.4004 26.4285 18.3654C26.447 18.3247 26.465 18.284 26.4831 18.2431C26.4986 18.2075 26.514 18.1718 26.5292 18.1361C26.546 18.0963 26.5626 18.0562 26.5792 18.0162C26.5935 17.9813 26.6075 17.9463 26.6212 17.9112C26.6391 17.8664 26.6564 17.8217 26.6735 17.7767L26.7055 17.6907C26.7242 17.6399 26.7426 17.5888 26.7605 17.5375L26.7854 17.4659C26.8041 17.4111 26.8221 17.3562 26.84 17.3009L26.8626 17.2297C26.8809 17.1713 26.8986 17.1127 26.9158 17.0538L26.9324 16.9971C26.9502 16.9354 26.9672 16.8732 26.9838 16.8111L26.9986 16.7544C27.015 16.6914 27.0308 16.6277 27.0461 16.5641L27.0578 16.5147C27.0732 16.4487 27.0878 16.3825 27.102 16.316L27.1122 16.2669C27.1265 16.1976 27.1401 16.1282 27.1529 16.0586L27.1585 16.0276C27.1719 15.9534 27.1845 15.8788 27.1963 15.804L27.2 15.7799C27.2117 15.7045 27.2225 15.6288 27.2324 15.5528L27.2357 15.5261C27.2454 15.4508 27.2543 15.3748 27.2622 15.2989L27.265 15.271C27.273 15.1932 27.2802 15.1152 27.2862 15.0369L27.2873 15.0223C27.2933 14.9412 27.2988 14.8601 27.303 14.7785L27.3037 14.7655C27.3078 14.6835 27.3112 14.6013 27.3135 14.519V14.5138L27.3136 14.5103C27.3158 14.4247 27.317 14.3388 27.317 14.2526C27.317 8.66316 22.6981 4.13232 17.0003 4.13232C11.3024 4.13232 6.68335 8.66316 6.68335 14.2524C6.68335 19.8419 11.3022 24.3729 16.9999 24.3729C18.2621 24.3729 19.4709 24.1504 20.5888 23.7433C20.6375 23.7254 20.6859 23.7074 20.7345 23.6888L20.8326 23.6509C20.8787 23.6327 20.9248 23.6143 20.9707 23.5956L21.0619 23.5576C21.1059 23.5391 21.1495 23.5204 21.1932 23.5013C21.2289 23.4857 21.2645 23.4699 21.3001 23.454C21.3412 23.4354 21.3822 23.4166 21.4232 23.3977L21.5273 23.3484C21.5649 23.3304 21.6024 23.312 21.6396 23.2937C21.6774 23.275 21.7153 23.2561 21.7529 23.2368C21.7886 23.2186 21.8243 23.2001 21.8598 23.1815C21.8992 23.1607 21.9386 23.1398 21.9778 23.1186L22.0762 23.0645C22.1174 23.0417 22.1584 23.0186 22.1992 22.9952C22.2278 22.9789 22.2562 22.9623 22.2845 22.9457L22.2972 22.9382L27.156 24.2154V24.2152Z" fill="#1FAFA3"/>
<path fill-rule="evenodd" clip-rule="evenodd" d="M5.24055 18.2168C6.74638 22.5164 10.6335 25.7295 15.3569 26.3415C15.6663 25.7609 16.2859 25.3647 17 25.3647C18.0235 25.3647 18.853 26.1786 18.853 27.1824C18.853 28.1863 18.0233 29.0002 17 29.0002C16.2022 29.0002 15.5221 28.5055 15.2612 27.8117C9.74848 27.1382 5.23631 23.3045 3.66653 18.2169H1.77167C0.797291 18.2169 0.00012207 17.4349 0.00012207 16.4791V12.0259C0.00012207 11.0701 0.797291 10.2882 1.77167 10.2882H3.04163C4.79215 4.34556 10.3785 0 17 0C23.6216 0 29.2079 4.34556 30.9586 10.2879H32.2286C33.203 10.2879 34.0001 11.0699 34.0001 12.0256V16.4788C34.0001 17.4346 33.203 18.2166 32.2286 18.2166H28.7595C29.1948 16.9736 29.4318 15.6401 29.4318 14.2522C29.4318 7.51691 23.8659 2.05692 17 2.05692C10.1342 2.05692 4.5683 7.51708 4.5683 14.2523C4.5683 15.6403 4.80522 16.9737 5.24055 18.2168Z" fill="#392B6B"/>
<path fill-rule="evenodd" clip-rule="evenodd" d="M12.2672 12.4985C13.2547 12.4985 14.0552 13.2838 14.0552 14.2525C14.0552 15.2212 13.2547 16.0065 12.2672 16.0065C11.2798 16.0065 10.4792 15.2212 10.4792 14.2525C10.4792 13.2838 11.2798 12.4985 12.2672 12.4985ZM21.7329 12.4985C22.7203 12.4985 23.5209 13.2838 23.5209 14.2525C23.5209 15.2212 22.7203 16.0065 21.7329 16.0065C20.7454 16.0065 19.9449 15.2212 19.9449 14.2525C19.9449 13.2838 20.7454 12.4985 21.7329 12.4985ZM16.9999 12.4985C17.9873 12.4985 18.7879 13.2838 18.7879 14.2525C18.7879 15.2212 17.9873 16.0065 16.9999 16.0065C16.0124 16.0065 15.2119 15.2212 15.2119 14.2525C15.2119 13.2838 16.0124 12.4985 16.9999 12.4985Z" fill="white"/>
</g>
<defs>
<clipPath id="clip0_1_778">
<rect width="34" height="29" fill="white"/>
</clipPath>
</defs>
</svg>
