<svg width="87" height="38" viewBox="0 0 87 38" fill="none" xmlns="http://www.w3.org/2000/svg">
<path d="M85.756 22.7456C85.0639 22.7456 84.498 23.3116 84.498 24.0121C84.498 24.7126 85.0592 25.2739 85.7513 25.2786C86.406 25.2786 86.9391 24.7775 86.9999 24.1327V23.8915C86.9391 23.2513 86.406 22.7502 85.7513 22.7502M85.7513 25.0884C85.1668 25.0884 84.6851 24.6059 84.6851 24.0167C84.6851 23.4276 85.1621 22.9451 85.7513 22.9451C86.3359 22.9451 86.8129 23.4276 86.8129 24.0167C86.8129 24.6059 86.3359 25.0837 85.7513 25.0884Z" fill="#808080"/>
<path d="M86.1956 23.5112C86.1255 23.4509 86.0413 23.4231 85.9478 23.4231H85.3819C85.3819 23.4231 85.3726 23.4231 85.3726 23.4324V24.5782C85.3726 24.5782 85.3726 24.5875 85.3819 24.5875H85.5549C85.5549 24.5875 85.5643 24.5875 85.5643 24.5782V24.2117C85.5643 24.2117 85.5643 24.2025 85.5736 24.2025H85.887C85.887 24.2025 85.8963 24.2025 85.901 24.2117C85.915 24.2489 85.929 24.2906 85.9478 24.3277C85.9805 24.4112 86.0132 24.4994 86.046 24.5829C86.046 24.5829 86.046 24.5922 86.0553 24.5922H86.2424C86.2424 24.5922 86.2424 24.5875 86.2424 24.5829C86.1909 24.453 86.1395 24.3231 86.0834 24.1932C86.0834 24.1839 86.0834 24.1839 86.088 24.1793C86.1816 24.1468 86.247 24.0865 86.2938 24.003C86.3406 23.9102 86.3499 23.8174 86.3266 23.72C86.3032 23.6365 86.2611 23.5669 86.1956 23.5159M86.0319 23.9983C86.0086 24.0123 85.9805 24.0169 85.9478 24.0169H85.5736C85.5736 24.0169 85.5643 24.0169 85.5643 24.0076V23.6365C85.5643 23.6365 85.5643 23.6272 85.5736 23.6272H85.9478C85.9898 23.6272 86.0273 23.6365 86.0647 23.6597C86.1255 23.7061 86.1488 23.7664 86.1442 23.8406C86.1395 23.9148 86.1021 23.9659 86.0319 23.9983Z" fill="#808080"/>
<path d="M1.73963 26.3873C2.04827 26.2296 2.29144 26.0023 2.46447 25.71C2.6375 25.4177 2.72635 25.0698 2.72635 24.6848C2.72635 24.1095 2.53462 23.6363 2.15115 23.2837C1.76768 22.9312 1.26263 22.7502 0.650021 22.7502H0V26.6239H0.659374C1.06622 26.6239 1.43098 26.545 1.73963 26.3827" fill="white"/>
<path d="M16.2366 23.7664V25.5107H18.5888C19.0752 25.5107 19.468 25.121 19.468 24.6385C19.468 24.156 19.0752 23.7664 18.5888 23.7664H16.2366Z" fill="white"/>
<path d="M19.2061 29.5698H14.3239V19.7302H21.058V17.5591H11.7566V31.7362H21.6799C21.5303 30.5161 20.4781 29.5651 19.2108 29.5651" fill="white"/>
<path d="M37.0746 17.5637C37.2242 18.7838 38.2764 19.7348 39.5437 19.7348H41.4283V31.7455H43.9957V19.7348H45.7727C47.0447 19.7348 48.0969 18.7838 48.2465 17.5637H37.0746Z" fill="white"/>
<path d="M33.1745 17.5684V27.4497L27.661 20.0364C26.5667 18.5611 24.8458 17.6519 23.0079 17.5637V28.8878C23.0079 30.3584 24.1349 31.5692 25.5753 31.7223V21.4791L31.4161 29.4074C32.4309 30.7852 34.0302 31.6388 35.7418 31.7316V20.4075C35.7418 18.9369 34.6148 17.7261 33.1745 17.573" fill="white"/>
<path d="M7.89379 19.5075C6.49554 18.2086 4.64368 17.5544 2.39432 17.5544H0V19.7256H2.42706C3.97495 19.7256 5.20485 20.1941 6.07466 21.1126C6.9398 22.0312 7.37938 23.2142 7.37938 24.6384C7.37938 25.5337 7.18765 26.3595 6.80418 27.0925C6.42072 27.8347 5.83616 28.4378 5.06923 28.8924C4.30698 29.3424 3.40911 29.5744 2.40368 29.5744H0V31.7455H2.41771C3.90481 31.7455 5.23291 31.4486 6.37863 30.8687C7.51032 30.2935 8.40819 29.4584 9.03951 28.3868C9.6755 27.3105 9.9935 26.0533 9.9935 24.643C9.9935 22.5322 9.28736 20.8065 7.89379 19.5122" fill="white"/>
<path d="M72.8538 23.743C73.0596 23.2095 73.1672 22.6296 73.1672 22.0219C73.1672 21.4142 73.0643 20.8204 72.8538 20.2869C72.6481 19.7534 72.3488 19.2802 71.97 18.8766C71.5912 18.4776 71.1002 18.1575 70.5016 17.9209C69.8983 17.6843 69.2156 17.5637 68.472 17.5637H61.8175V31.7269C63.2578 31.5785 64.3849 30.363 64.3849 28.8971V19.7395H68.0371C68.748 19.7395 69.3512 19.9482 69.8235 20.3518C70.3099 20.7694 70.553 21.3353 70.553 22.0266C70.553 22.7178 70.3052 23.2745 69.8235 23.692C69.3512 24.1002 68.748 24.3044 68.0371 24.3044H66.2741C66.2835 25.5013 67.2655 26.4755 68.4767 26.4755C69.2156 26.4755 69.8983 26.3548 70.4969 26.1183C71.0908 25.8817 71.5865 25.5616 71.9653 25.158C72.3488 24.7497 72.6481 24.2765 72.8538 23.7477" fill="#1FB1A5"/>
<path d="M59.1145 24.9539L58.9929 24.8332C58.9695 24.8147 58.848 24.7265 58.848 24.7265C58.848 24.7265 58.7451 24.6523 58.703 24.6245L58.6282 24.5735C58.3382 24.3786 58.0249 24.207 57.7022 24.0539C57.2112 23.8219 56.7015 23.641 56.1871 23.5157L54.6064 23.1307C54.0874 23.0054 53.615 22.8802 53.2035 22.7688C52.7546 22.6482 52.3852 22.4673 52.1046 22.24C51.7866 21.9802 51.6229 21.6601 51.6229 21.2936C51.6229 20.7462 51.8567 20.3055 52.3103 19.9807C52.7359 19.6792 53.3204 19.5307 54.05 19.5307C54.873 19.5307 55.6914 19.6745 56.4864 19.9622C56.8184 20.0828 57.1644 20.1431 57.5152 20.1431C58.3803 20.1431 59.208 19.7673 59.7739 19.1318C58.3663 17.9395 56.5378 17.3364 54.3352 17.3364C52.6891 17.3364 51.361 17.7493 50.3836 18.5704C49.4063 19.3869 48.934 20.3658 48.934 21.558C48.934 22.1843 49.0509 22.741 49.28 23.2142C49.4484 23.5668 49.6635 23.8683 49.8926 24.1003L50.1732 24.3415C50.1732 24.3415 50.2808 24.4204 50.3182 24.4436L50.3883 24.4899C50.6829 24.6848 50.9916 24.8564 51.3143 25.0095C51.8053 25.2415 52.315 25.4224 52.8247 25.5477L54.4054 25.9327C54.9291 26.0626 55.4014 26.1832 55.8083 26.2946C56.2572 26.4152 56.6267 26.5961 56.9072 26.8234C57.2252 27.0832 57.3889 27.4033 57.3889 27.7698C57.3889 28.3172 57.1551 28.7579 56.7015 29.0827C56.2759 29.3842 55.6914 29.5327 54.9619 29.5327C54.1388 29.5327 53.3204 29.3889 52.5254 29.1012C52.1934 28.9806 51.8474 28.9203 51.4966 28.9203C50.6315 28.9203 49.8038 29.2961 49.2379 29.9316C50.6455 31.1239 52.474 31.727 54.6766 31.727C56.3227 31.727 57.6508 31.3141 58.6282 30.493C59.6055 29.6765 60.0779 28.6976 60.0779 27.5007C60.0779 26.8745 59.9609 26.3178 59.7318 25.8446C59.5635 25.492 59.3483 25.1905 59.1052 24.9492" fill="#1FB1A5"/>
<path d="M81.552 19.2106C81.1685 18.2225 80.1958 17.5637 79.1296 17.5637C79.0267 17.5637 78.9192 17.5684 78.8163 17.5823C77.8623 17.6983 77.0392 18.3524 76.6745 19.2941L71.8438 31.7455H72.3114C73.7938 31.7455 75.1406 30.8177 75.6504 29.4491L76.9036 25.8492C76.9036 25.8492 76.9083 25.826 76.913 25.8167L78.1242 22.3652L78.7368 20.6163C78.8677 20.2405 79.4055 20.2405 79.5411 20.6163L80.1444 22.3559L81.3135 25.7332C81.3182 25.775 81.3322 25.8167 81.3462 25.8585L82.5995 29.4445C83.1186 30.8223 84.4607 31.7455 85.9431 31.7455H86.4108L81.5473 19.2199L81.552 19.2106Z" fill="#1FB1A5"/>
<path d="M11.8501 36.6399C12.0184 36.7419 12.2663 36.8254 12.5235 36.8254C12.907 36.8254 13.1314 36.626 13.1314 36.3383C13.1314 36.0693 12.9771 35.9208 12.5843 35.7724C12.1073 35.6054 11.8173 35.3641 11.8173 34.9652C11.8173 34.5198 12.1915 34.1904 12.7573 34.1904C13.0566 34.1904 13.2717 34.26 13.4027 34.3296L13.2998 34.6311C13.2062 34.5801 13.0098 34.4966 12.748 34.4966C12.3505 34.4966 12.2008 34.7286 12.2008 34.9234C12.2008 35.1925 12.3785 35.3224 12.7807 35.4755C13.2717 35.661 13.5242 35.893 13.5242 36.3151C13.5242 36.7559 13.1922 37.1363 12.5048 37.1363C12.2242 37.1363 11.9156 37.0574 11.7612 36.9553L11.8548 36.6445L11.8501 36.6399Z" fill="#808080"/>
<path d="M19.51 35.8327C19.4866 35.4337 19.4632 34.9559 19.4679 34.5987H19.4539C19.3557 34.9327 19.2341 35.2899 19.0844 35.6842L18.57 37.0713H18.2848L17.8125 35.7121C17.6722 35.3085 17.5599 34.942 17.4758 34.6033H17.4664C17.457 34.9605 17.4383 35.4383 17.4103 35.8651L17.3308 37.0899H16.9707L17.1718 34.2322H17.6535L18.1492 35.6146C18.2707 35.9672 18.3689 36.278 18.4438 36.5749H18.4578C18.5326 36.2873 18.6355 35.9718 18.7664 35.6146L19.2855 34.2322H19.7672L19.9496 37.0899H19.5848L19.51 35.8327Z" fill="#808080"/>
<path d="M23.9293 34.2322H23.5552V37.0899H23.9293V34.2322Z" fill="#808080"/>
<path d="M27.6141 34.2322H27.9929V36.7791H29.2369V37.0899H27.6141V34.2322Z" fill="#808080"/>
<path d="M34.1892 35.7492H33.0575V36.7791H34.3201V37.0899H32.6787V34.2322H34.2547V34.5384H33.0575V35.443H34.1892V35.7492Z" fill="#808080"/>
<path d="M43.5982 37.0899C43.514 37.011 43.4392 36.9275 43.3269 36.8115C43.0744 37.0388 42.7938 37.1363 42.4758 37.1363C41.91 37.1363 41.5826 36.7651 41.5826 36.3337C41.5826 35.944 41.8211 35.6749 42.1532 35.4987V35.4847C42.0035 35.2992 41.91 35.0904 41.91 34.8863C41.91 34.5384 42.1625 34.1812 42.6489 34.1812C43.0136 34.1812 43.2942 34.4177 43.2942 34.7889C43.2942 35.0904 43.1165 35.327 42.6535 35.5497V35.5636C42.9014 35.842 43.1773 36.1574 43.3644 36.3615C43.5 36.1621 43.5888 35.8883 43.6449 35.5265H43.991C43.9115 35.9765 43.7899 36.3337 43.5701 36.5796C43.7244 36.7419 43.8788 36.9043 44.0518 37.0852H43.6029L43.5982 37.0899ZM43.1399 36.5981C42.9669 36.4126 42.6442 36.0646 42.3215 35.6981C42.1672 35.7956 41.9474 35.9765 41.9474 36.278C41.9474 36.6028 42.1953 36.8533 42.5413 36.8533C42.7938 36.8533 43.0043 36.7419 43.1399 36.5935M42.256 34.8538C42.256 35.0579 42.3496 35.2157 42.4758 35.3688C42.7705 35.2018 42.9575 35.0487 42.9575 34.8074C42.9575 34.6358 42.8593 34.4409 42.6208 34.4409C42.3823 34.4409 42.256 34.6358 42.256 34.8585" fill="#808080"/>
<path d="M51.3563 34.2693C51.5481 34.2322 51.8193 34.209 52.0765 34.209C52.4787 34.209 52.7359 34.2832 52.9182 34.4409C53.0632 34.5662 53.1474 34.761 53.1474 34.9837C53.1474 35.3595 52.9042 35.61 52.6003 35.7121V35.726C52.8247 35.8002 52.9603 36.0043 53.0305 36.3012C53.124 36.7002 53.1942 36.9739 53.2549 37.0852H52.8668C52.82 37.0064 52.7546 36.7605 52.6704 36.4033C52.5862 36.009 52.4272 35.8605 52.0858 35.8466H51.7304V37.0852H51.3563V34.2647V34.2693ZM51.7304 35.5682H52.1139C52.5161 35.5682 52.7686 35.3502 52.7686 35.0255C52.7686 34.6543 52.4974 34.4966 52.0999 34.492C51.9175 34.492 51.7912 34.5105 51.7304 34.5244V35.5682Z" fill="#808080"/>
<path d="M58.2167 35.7492H57.085V36.7791H58.3476V37.0899H56.7062V34.2322H58.2821V34.5384H57.085V35.443H58.2167V35.7492Z" fill="#808080"/>
<path d="M61.8596 34.2322H62.2384V36.7791H63.4823V37.0899H61.8596V34.2322Z" fill="#808080"/>
<path d="M67.3965 36.1899L67.0925 37.0899H66.7043L67.6911 34.2322H68.1447L69.1408 37.0899H68.7386L68.4253 36.1899H67.3918H67.3965ZM68.3504 35.9023L68.0652 35.0811C67.9997 34.8956 67.9576 34.7239 67.9155 34.5616H67.9062C67.8641 34.7286 67.8173 34.9048 67.7612 35.0765L67.476 35.9023H68.3504Z" fill="#808080"/>
<path d="M74.1305 37.0899L73.761 36.459C73.6114 36.2177 73.5132 36.06 73.4243 35.893H73.415C73.3308 36.06 73.2513 36.2131 73.1016 36.459L72.7509 37.0852H72.3207L73.2092 35.6425L72.3534 34.2322H72.7883L73.1718 34.9002C73.2793 35.0858 73.3635 35.2296 73.4383 35.3827H73.4524C73.5319 35.211 73.6067 35.0811 73.7143 34.9002L74.1117 34.2322H74.542L73.6581 35.6239L74.5654 37.0899H74.1305Z" fill="#808080"/>
<path d="M57.8941 0L57.3002 0.1067C57.361 0.250512 57.6275 0.867515 58.1326 1.60513L57.7725 2.16647C57.7491 2.20358 57.7257 2.24533 57.693 2.28709C56.7016 3.68346 55.612 4.98705 54.3166 6.12364C50.9309 9.07875 46.9934 10.6561 42.4946 10.8463C40.7036 10.9205 38.9265 10.7303 37.1776 10.3406C34.5447 9.75143 31.9914 8.9535 29.7 7.4829C28.9985 7.0329 28.3438 6.51796 27.6564 5.83601C28.6291 5.92415 29.1341 5.99374 29.8029 6.119C29.9852 6.15147 30.1442 6.17003 30.1676 5.91024C30.1863 5.69684 30.0694 5.65509 29.8964 5.63189C29.368 5.5623 28.8442 5.47416 28.3158 5.40921C27.9323 5.36282 27.4459 5.20973 27.2308 5.62261C27.17 5.73395 27.156 5.83601 27.17 5.93343C27.1841 6.02621 27.2308 6.10972 27.2916 6.17931L27.5348 6.44837C27.5348 6.44837 30.7709 9.76534 36.3218 12.1127C36.8455 12.3447 37.374 12.5674 37.9164 12.7669C38.7255 13.0684 39.5438 13.3143 40.3716 13.4906C40.3762 13.4906 40.3856 13.4906 40.3903 13.4952C42.0784 13.8524 43.7994 13.9081 45.5624 13.5323C48.083 12.9942 50.1406 11.6488 51.9878 9.93699C54.2091 7.87258 55.9861 5.44169 57.7818 3.03398L58.0858 2.6443L58.502 2.10616C58.8106 2.50048 59.1848 2.91337 59.629 3.29377L59.8722 2.76491C58.5815 1.60513 57.9876 0.20876 57.9081 0.0139174" fill="white"/>
</svg>
